<?xml version="1.0" encoding="utf-8"?>
<!-- Generator: Adobe Illustrator 16.0.0, SVG Export Plug-In . SVG Version: 6.00 Build 0)  -->
<!DOCTYPE svg PUBLIC "-//W3C//DTD SVG 1.1//EN" "http://www.w3.org/Graphics/SVG/1.1/DTD/svg11.dtd">
<svg version="1.1" xmlns="http://www.w3.org/2000/svg" xmlns:xlink="http://www.w3.org/1999/xlink" x="0px" y="0px" width="15px"
	 height="15px" viewBox="0 0 15 15" enable-background="new 0 0 15 15" xml:space="preserve">
<g id="图层_2">
</g>
<g id="图层_3">
</g>
<g id="图层_1">
	<g>
		<g>
			<g>
				<g>
					<polygon fill="#4D4D4D" points="13.763,10.62 7.5,7.248 1.237,10.62 0.763,9.739 7.5,6.111 14.237,9.739 					"/>
				</g>
				<g>
					<polygon fill="#4D4D4D" points="7.5,3.68 3.785,5.68 1,4.18 7.5,0.68 14,4.18 11.215,5.68 					"/>
				</g>
				<g>
					
						<rect x="1.68" y="9.84" transform="matrix(0.5998 -0.8001 0.8001 0.5998 -7.8808 6.1221)" fill="#4D4D4D" width="1" height="2.201"/>
				</g>
				<g>
					
						<rect x="12.679" y="9.84" transform="matrix(-0.5998 -0.8001 0.8001 -0.5998 12.3314 28.0471)" fill="#4D4D4D" width="1" height="2.201"/>
				</g>
			</g>
		</g>
		<polygon fill="#10C98C" points="10.554,11 7.429,14.768 4.442,11 		"/>
		<rect x="7" y="8" fill="#10C98C" width="1" height="3"/>
		<rect fill="none" width="15" height="15"/>
	</g>
	<g id="feather">
	</g>
</g>
</svg>
