<svg xmlns="http://www.w3.org/2000/svg" width="16" height="16"><path d="M12.6 6.134l-.094.071c-.269.333-.746 1.096-.91 2.375.057.277.092.495.092.545 0 2.206-1.794 4-4 4-1.098 0-2.093-.445-2.817-1.164-.718-.724-1.163-1.718-1.163-2.815 0-2.206 1.794-4 4-4l.351.025v1.85s1.626-1.342 1.631-1.339l1.869-1.577-3.5-2.917v2.218l-.371-.03c-3.176 0-5.75 2.574-5.75 5.75 0 1.593.648 3.034 1.695 4.076 1.042 1.046 2.482 1.694 4.076 1.694 3.176 0 5.75-2.574 5.75-5.75-.001-1.106-.318-2.135-.859-3.012z" fill="#BFBFBF"/></svg>