<?xml version="1.0" standalone="no"?><!DOCTYPE svg PUBLIC "-//W3C//DTD SVG 1.1//EN" "http://www.w3.org/Graphics/SVG/1.1/DTD/svg11.dtd"><svg t="1537150028942" class="icon" style="" viewBox="0 0 1024 1024" version="1.1" xmlns="http://www.w3.org/2000/svg" p-id="1849" xmlns:xlink="http://www.w3.org/1999/xlink" width="200" height="200"><defs><style type="text/css"></style></defs><path d="M733.835636 289.512727a34.909091 34.909091 0 0 0-49.384727 0l-172.8 172.8-172.8-172.8a34.909091 34.909091 0 1 0-49.338182 49.338182l172.8 172.8-172.8 172.8a34.909091 34.909091 0 1 0 49.338182 49.384727l172.8-172.8 172.8 172.8c6.818909 6.818909 15.755636 10.216727 24.669091 10.216728a34.909091 34.909091 0 0 0 24.692364-59.578182l-172.776728-172.8 172.8-172.823273a34.909091 34.909091 0 0 0 0-49.338182" fill="#797979" p-id="1850"></path></svg>