<?xml version="1.0" encoding="utf-8"?>
<!-- Generator: Adobe Illustrator 19.2.1, SVG Export Plug-In . SVG Version: 6.00 Build 0)  -->
<svg version="1.1" xmlns="http://www.w3.org/2000/svg" xmlns:xlink="http://www.w3.org/1999/xlink" x="0px" y="0px"
	 viewBox="0 0 30 30" enable-background="new 0 0 30 30" xml:space="preserve">
<g id="图层_2">
</g>
<g id="图层_3">
</g>
<g id="图层_1">
	<g id="feather">
	</g>
	<g>
		<g>
			<g>
				<path fill="#4D4D4D" d="M23,16H7c0,0,0,0.225,0,0.5V18c0,0.275,0,0,0,1h16c0,0,0-0.725,0-1v-1.5C23,16.225,23,16.291,23,16z
					 M22,18h-2v-1h2V18z"/>
				<path fill="#4D4D4D" d="M23,20H7c0,0,0,0.225,0,0.5V22c0,0.275,0,0,0,1h16c0,0,0-0.725,0-1v-1.5C23,20.225,23,20.291,23,20z
					 M22,22h-2v-1h2V22z"/>
			</g>
			<path fill="#4D4D4D" d="M19.308,7h-8.616L7,15h16L19.308,7z M17,10h-3v1h2v1h-2v1h3v1h-2.533H13v-1.286v-1.143v-1.143V9.286V9
				h1.467H17V10z"/>
		</g>
		<rect fill="none" width="30" height="30"/>
	</g>
</g>
</svg>
