<?xml version="1.0" encoding="utf-8"?>
<!-- Generator: Adobe Illustrator 16.0.0, SVG Export Plug-In . SVG Version: 6.00 Build 0)  -->
<!DOCTYPE svg PUBLIC "-//W3C//DTD SVG 1.1//EN" "http://www.w3.org/Graphics/SVG/1.1/DTD/svg11.dtd">
<svg version="1.1" xmlns="http://www.w3.org/2000/svg" xmlns:xlink="http://www.w3.org/1999/xlink" x="0px" y="0px" width="15px"
	 height="15px" viewBox="0 0 15 15" enable-background="new 0 0 15 15" xml:space="preserve">
<g id="图层_2">
</g>
<g id="图层_3">
</g>
<g id="图层_1">
	<g>
		<g>
			<rect fill="#4D4D4D" width="2" height="2"/>
			<rect x="7" fill="#4D4D4D" width="1" height="2"/>
			<rect x="7" y="13" fill="#4D4D4D" width="1" height="2"/>
			<rect y="7" fill="#4D4D4D" width="1" height="1"/>
			<rect x="14" y="7" fill="#4D4D4D" width="1" height="1"/>
			<rect x="13" fill="#4D4D4D" width="2" height="2"/>
			<rect x="13" y="13" fill="#4D4D4D" width="2" height="2"/>
			<rect y="13" fill="#4D4D4D" width="2" height="2"/>
			<g>
				<path fill="#4D4D4D" d="M6.605,9.182H6.004L5.051,7.787L4.062,9.182H3.496l1.268-1.785L3.496,5.619h0.611l0.957,1.385
					l0.975-1.385h0.566L5.345,7.377L6.605,9.182z"/>
				<path fill="#4D4D4D" d="M10.841,5.619L9.49,9.182c-0.195,0.523-0.39,0.889-0.582,1.097C8.715,10.486,8.496,10.59,8.25,10.59
					c-0.219,0-0.436-0.041-0.649-0.12l0.089-0.427c0.174,0.055,0.328,0.082,0.465,0.082c0.191,0,0.349-0.074,0.472-0.223
					s0.247-0.391,0.372-0.729L7.662,5.619h0.581L9.252,8.46l1.008-2.841H10.841z"/>
			</g>
			<path fill="#4D4D4D" d="M13,2v11H2V2H13 M14,1H1v13h13V1L14,1z"/>
		</g>
		<rect fill="none" width="15" height="15"/>
	</g>
	<g id="feather">
	</g>
</g>
</svg>
