<?xml version="1.0" encoding="utf-8"?>
<!-- Generator: Adobe Illustrator 16.0.0, SVG Export Plug-In . SVG Version: 6.00 Build 0)  -->
<!DOCTYPE svg PUBLIC "-//W3C//DTD SVG 1.1//EN" "http://www.w3.org/Graphics/SVG/1.1/DTD/svg11.dtd">
<svg version="1.1" xmlns="http://www.w3.org/2000/svg" xmlns:xlink="http://www.w3.org/1999/xlink" x="0px" y="0px" width="15px"
	 height="15px" viewBox="0 0 15 15" enable-background="new 0 0 15 15" xml:space="preserve">
<g id="图层_2">
</g>
<g id="图层_3">
</g>
<g id="图层_1">
	<g>
		<rect fill="none" width="15" height="15"/>
		<path fill="#4D4D4D" d="M4.999,5L10,5.003V5c0,0,0.209,0,0.25,0c0.764,0,2.318,1.164,2.318,2.406c0,1.241-1.555,2.45-2.318,2.45
			C10.111,9.856,10.019,10,9.965,10H9H6H3.991c-0.358,0-1.81-0.684-1.81-2.986C2.234,6.497,3.37,5,4,5H4.999 M9,4l1,0.006L5,4H4
			v0.444c0,0,0-0.111,0-0.444C2.619,4,1,6,1,7c0,2.991,1.988,4,2.991,4H4h2h3h1c0,0,0.078-0.006,0.25-0.006
			c1.381,0,3.5-1.564,3.5-3.494s-2.119-3.494-3.5-3.494C10.078,4.006,9,4,9,4L9,4z"/>
		<circle fill="#4D4D4D" cx="4.5" cy="7.5" r="2.5"/>
	</g>
	<g id="feather">
	</g>
</g>
</svg>
