<?xml version="1.0" encoding="utf-8"?>
<!-- Generator: Adobe Illustrator 16.0.0, SVG Export Plug-In . SVG Version: 6.00 Build 0)  -->
<!DOCTYPE svg PUBLIC "-//W3C//DTD SVG 1.1//EN" "http://www.w3.org/Graphics/SVG/1.1/DTD/svg11.dtd">
<svg version="1.1" xmlns="http://www.w3.org/2000/svg" xmlns:xlink="http://www.w3.org/1999/xlink" x="0px" y="0px" width="40px"
	 height="40px" viewBox="0 0 40 40" enable-background="new 0 0 40 40" xml:space="preserve">
<g id="图层_2">
</g>
<g id="图层_3">
</g>
<g id="图层_1">
	<g id="feather">
	</g>
	<g>
		<g>
			<g>
				<path fill="#4D4D4D" d="M21,38V18h15v4H25v4h10v4H25v4h11v4H21z"/>
			</g>
			<polygon fill="#4D4D4D" points="1,3 1,7.145 1,38 19,38 19,36 3,36 3,8 34,8 34,16 36,16 36,6 21,6 15,3 			"/>
		</g>
		<rect fill="none" width="40" height="40"/>
		<rect x="19" y="2" fill="#ECA482" width="20" height="12"/>
		<rect x="22" y="3" fill="none" width="16" height="10"/>
		<text transform="matrix(1 0 0 1 22 12.4395)"><tspan x="0" y="0" font-family="'ArialMT'" font-size="11" letter-spacing="1">J</tspan><tspan x="6.633" y="0" font-family="'ArialMT'" font-size="11">S</tspan></text>
	</g>
</g>
</svg>
