<?xml version="1.0" encoding="utf-8"?>
<!-- Generator: Adobe Illustrator 16.0.0, SVG Export Plug-In . SVG Version: 6.00 Build 0)  -->
<!DOCTYPE svg PUBLIC "-//W3C//DTD SVG 1.1//EN" "http://www.w3.org/Graphics/SVG/1.1/DTD/svg11.dtd">
<svg version="1.1" xmlns="http://www.w3.org/2000/svg" xmlns:xlink="http://www.w3.org/1999/xlink" x="0px" y="0px" width="40px"
	 height="40px" viewBox="0 0 40 40" enable-background="new 0 0 40 40" xml:space="preserve">
<g id="图层_2">
</g>
<g id="图层_3">
</g>
<g id="图层_1">
	<g id="feather">
	</g>
	<g>
		<g>
			<g>
				<polygon fill="#4D4D4D" points="36,18 9,18 9,38 1,38 1,6 36,6 				"/>
				<polygon fill="#4D4D4D" points="1,3 1,7.145 1,38 6,38 6,36 3,36 3,8 35,8 35,10 36,10 36,8 23,8 15,3 				"/>
			</g>
			<g>
				<rect x="28" y="28" fill="#4D4D4D" width="2" height="2"/>
				<path fill="#4D4D4D" d="M29.234,22c-2.748,0-3.277,2.984-6.025,2.984S19.933,22,17.185,22c-2.749,0-6.766,4.96-6.766,11.196
					c0,1.955,1.481,4.652,3.119,4.652c3.276,0,3.91-5.032,9.671-5.032c5.762,0,6.395,5.032,9.672,5.032
					c1.638,0,3.119-2.697,3.119-4.652C36,26.96,31.982,22,29.234,22z M20,30h-2v2h-2v-2h-2v-2h2v-2.052L18,26v2h2V30z M32,30h-2v2
					h-2v-2h-2v-2h2v-2h2v2h2V30z"/>
			</g>
		</g>
		<rect fill="none" width="40" height="40"/>
		<rect x="19" y="2" fill="#31AEBE" width="20" height="12"/>
		<rect x="22" y="3" fill="none" width="16" height="10"/>
		<text transform="matrix(1 0 0 1 22 12.4395)" font-family="'ArialMT'" font-size="11">TS</text>
	</g>
</g>
</svg>
