<?xml version="1.0" encoding="utf-8"?>
<!-- Generator: Adobe Illustrator 16.0.0, SVG Export Plug-In . SVG Version: 6.00 Build 0)  -->
<!DOCTYPE svg PUBLIC "-//W3C//DTD SVG 1.1//EN" "http://www.w3.org/Graphics/SVG/1.1/DTD/svg11.dtd">
<svg version="1.1" xmlns="http://www.w3.org/2000/svg" xmlns:xlink="http://www.w3.org/1999/xlink" x="0px" y="0px" width="40px"
	 height="40px" viewBox="0 0 40 40" enable-background="new 0 0 40 40" xml:space="preserve">
<g id="图层_2">
</g>
<g id="图层_3">
</g>
<g id="图层_1">
	<g id="feather">
	</g>
	<g>
		<g>
			<g>
				<polygon fill="#4D4D4D" points="36,18 9,18 9,38 1,38 1,6 36,6 				"/>
				<polygon fill="#4D4D4D" points="1,3 1,7.538 1,38 6,38 6,36 3,36 3,10 35,10 35,13 36,13 36,8 20.5,6.5 13,3 				"/>
			</g>
			<rect x="11" y="20" fill="#4D4D4D" width="10" height="18"/>
			<rect x="23" y="34" fill="#4D4D4D" width="5" height="4"/>
			<rect x="30" y="34" fill="#4D4D4D" width="6" height="4"/>
			<rect x="23" y="20" fill="#4D4D4D" width="13" height="12"/>
		</g>
		<rect fill="none" width="40" height="40"/>
		<rect x="19" y="2" fill="#31AEBE" width="20" height="12"/>
		<rect x="22" y="3" fill="none" width="16" height="10"/>
		<text transform="matrix(1 0 0 1 22 12.4395)" font-family="'ArialMT'" font-size="11">TS</text>
	</g>
</g>
</svg>
