<?xml version="1.0" encoding="utf-8"?>
<!-- Generator: Adobe Illustrator 16.0.0, SVG Export Plug-In . SVG Version: 6.00 Build 0)  -->
<!DOCTYPE svg PUBLIC "-//W3C//DTD SVG 1.1//EN" "http://www.w3.org/Graphics/SVG/1.1/DTD/svg11.dtd">
<svg version="1.1" xmlns="http://www.w3.org/2000/svg" xmlns:xlink="http://www.w3.org/1999/xlink" x="0px" y="0px" width="15px"
	 height="15px" viewBox="0 0 15 15" enable-background="new 0 0 15 15" xml:space="preserve">
<g id="图层_2">
</g>
<g id="图层_3">
</g>
<g id="图层_1">
	<g id="feather">
	</g>
	<g>
		<path fill="#4D4D4D" d="M13,10H2V1h11V10z M14,0H1v11h13V0z"/>
		<polygon fill="#4D4D4D" points="3,9 5,3 10,9 		"/>
		<rect x="10" y="2" fill="#4D4D4D" width="2" height="2"/>
		<rect x="1" y="8" fill="#BDA2F3" width="13" height="7"/>
		<rect x="2" y="9" width="1" height="5"/>
		<rect x="6" y="9" width="1" height="5"/>
		<rect x="8" y="9" width="1" height="5"/>
		<rect x="2" y="9" width="3" height="1"/>
		<rect x="6" y="9" width="3" height="1"/>
		<rect x="12" y="11" width="2" height="1"/>
		<rect x="13" y="11" width="1" height="2.001"/>
		<rect x="10" y="9" width="1" height="5"/>
		<rect x="11" y="9" width="3" height="1"/>
		<rect x="11" y="13" width="3" height="1"/>
		<rect x="3" y="11" width="2" height="1"/>
		<rect x="4" y="10" width="1" height="2"/>
		<rect fill="none" width="15" height="15"/>
	</g>
</g>
</svg>
