<?xml version="1.0" encoding="utf-8"?>
<!-- Generator: Adobe Illustrator 19.2.1, SVG Export Plug-In . SVG Version: 6.00 Build 0)  -->
<svg version="1.1" xmlns="http://www.w3.org/2000/svg" xmlns:xlink="http://www.w3.org/1999/xlink" x="0px" y="0px"
	 viewBox="0 0 11 15" enable-background="new 0 0 11 15" xml:space="preserve">
<g id="图层_2">
</g>
<g id="图层_3">
</g>
<g id="图层_1">
	<g id="feather">
	</g>
	<g>
		<rect opacity="0.3" fill="none" width="11" height="15"/>
		<path fill="#BFBFBF" d="M 11.786 1.773 C 11.786 2.451 8.555 3 5.892 3 C 3.228 3 -0.003 2.451 -0.003 1.773 C -0.003 1.095 3.228 0.546 5.892 0.546 C 8.555 0.546 11.786 1.095 11.786 1.773 Z"/>
		<path fill="#BFBFBF" d="M 5.914 4 C 3.24 4 -0.003 3.828 -0.003 3 L -0.003 6 C -0.003 6.828 3.24 7 5.914 7 C 8.586 7 11.829 6.828 11.829 6 L 11.829 3 C 11.829 3.828 8.586 4 5.914 4 Z"/>
		<path fill="#BFBFBF" d="M 5.867 8.098 C 3.204 8.098 -0.027 7.926 -0.027 7.098 L -0.027 10.098 C -0.027 10.926 3.204 11.098 5.867 11.098 C 8.531 11.098 11.762 10.926 11.762 10.098 L 11.762 7.098 C 11.762 7.926 8.531 8.098 5.867 8.098 Z"/>
		<path fill="#BFBFBF" d="M 5.905 12.191 C 3.242 12.191 0.011 12.019 0.011 11.191 L 0.011 14.191 C 0.011 15.019 3.242 15.191 5.905 15.191 C 8.568 15.191 11.799 15.019 11.799 14.191 L 11.799 11.191 C 11.799 12.019 8.568 12.191 5.905 12.191 Z"/>
	</g>
</g>
</svg>
