<?xml version="1.0" encoding="utf-8"?>
<!-- Generator: Adobe Illustrator 19.2.1, SVG Export Plug-In . SVG Version: 6.00 Build 0)  -->
<svg version="1.1" xmlns="http://www.w3.org/2000/svg" xmlns:xlink="http://www.w3.org/1999/xlink" x="0px" y="0px"
	 viewBox="0 0 15 15" enable-background="new 0 0 15 15" xml:space="preserve">
			<path fill="#c2c2c2" d="M7.003,12.236C8.831,12.388,7.576,11.018,9.267,11L10,11.611C10.182,13.819,8.084,13.739,7.003,12.236z"
					/>
			<path fill="#c2c2c2" d="M12.609,9.401c0.569-0.893,2.33-3.886,2.33-3.886c0.141-0.248-0.171-0.507-0.389-0.324
					c0,0-2.62,2.277-3.392,2.999c-0.611,0.571-0.613,0.832-0.811,1.773l0.67,0.558C11.905,10.156,12.16,10.107,12.609,9.401z"/>
			<path id="picture-11_11_" fill="#c2c2c2" d="M5.87,11l3.521-3.597L7.826,5L6.55,7.889L4.891,6l-2.935,5H5.87z M3.875,5
				c0-0.529-0.42-0.958-0.938-0.958C2.42,4.042,2,4.471,2,5c0,0.529,0.42,0.958,0.938,0.958C3.455,5.958,3.875,5.529,3.875,5z
				 M5.87,12H0.978V3H13v1h1V2H0v11h5.87V12z"/>
</svg>
