<?xml version="1.0" encoding="utf-8"?>
<!-- Generator: Adobe Illustrator 19.2.1, SVG Export Plug-In . SVG Version: 6.00 Build 0)  -->
<svg version="1.1" xmlns="http://www.w3.org/2000/svg" xmlns:xlink="http://www.w3.org/1999/xlink" x="0px" y="0px"
	 viewBox="0 0 15 15" enable-background="new 0 0 15 15" xml:space="preserve">
<g id="图层_2">
</g>
<g id="图层_3">
</g>
<g id="图层_1">
	<g id="feather">
	</g>
	<g>
		<rect opacity="0.3" fill="none" width="15" height="15"/>
		<g>
			<rect x="11" y="7" fill="#BFBFBF" width="1" height="1"/>
			<rect x="12" y="6" fill="#BFBFBF" width="3" height="1"/>
			<rect x="14" y="7" fill="#BFBFBF" width="1" height="3"/>
			<rect x="13" y="10" fill="#BFBFBF" width="1" height="1"/>
			<rect x="11" y="11" fill="#BFBFBF" width="2" height="1"/>
			<rect x="9" y="14" fill="#BFBFBF" width="2" height="1"/>
			<rect x="8" y="13" fill="#BFBFBF" width="1" height="1"/>
			<rect x="8" y="11" fill="#BFBFBF" width="1" height="2"/>
			<rect x="9" y="10" fill="#BFBFBF" width="1" height="1"/>
			<rect x="10" y="9" fill="#BFBFBF" width="2" height="1"/>
			<rect x="11" y="13" fill="#BFBFBF" width="1" height="1"/>
		</g>
		<path fill="#BFBFBF" d="M11,1.773C11,2.451,7.985,3,5.5,3S0,2.451,0,1.773s3.015-1.227,5.5-1.227S11,1.095,11,1.773z"/>
		<path fill="#BFBFBF" d="M5.5,4C3.015,4,0,3.828,0,3v3c0,0.828,3.015,1,5.5,1S11,6.828,11,6V3C11,3.828,7.985,4,5.5,4z"/>
		<path fill="#BFBFBF" d="M7,11.969C6.529,11.99,6.029,12,5.5,12C3.015,12,0,11.828,0,11v3c0,0.828,3.015,1,5.5,1
			c0.529,0,1.029-0.01,1.5-0.031V11.969z"/>
		<path fill="#BFBFBF" d="M9,9V8c0,0-1.015,0-3.5,0S0,7.828,0,7v3c0,0.828,3.015,1,5.5,1c0.529,0,1.029-0.01,1.5-0.031V10L9,9z"/>
	</g>
</g>
</svg>
