<?xml version="1.0" encoding="utf-8"?>
<!-- Generator: Adobe Illustrator 16.0.0, SVG Export Plug-In . SVG Version: 6.00 Build 0)  -->
<!DOCTYPE svg PUBLIC "-//W3C//DTD SVG 1.1//EN" "http://www.w3.org/Graphics/SVG/1.1/DTD/svg11.dtd">
<svg version="1.1" xmlns="http://www.w3.org/2000/svg" xmlns:xlink="http://www.w3.org/1999/xlink" x="0px" y="0px"
	 viewBox="0 0 15 15" enable-background="new 0 0 15 15" xml:space="preserve">
	<path fill="#c2c2c2" d="M1.561,9.458C2.403,8.952,2.88,9.525,3.8,9.954c0.79,0.369,0.908-0.229,0.985-0.692
			c0.124-0.747,0.938-0.858,0.938-1.875c0-0.807-0.332-2.279-0.533-3.661C4.947,2.062,4.863,1.088,5.681,1.011
			c0.783-0.073,0.822,0.368,1.12,2.628c0.229,1.732,0.59,2.952,0.771,2.916c0.18-0.036-0.088-1.606-0.153-3.206
			C7.301,0.484,7.454,0.034,8.175,0.034c0.62,0,0.757,0.405,0.838,3.314c0.042,1.513,0.206,3.089,0.335,3.089
			c0.191,0,0.344-1.478,0.314-3.08c-0.055-2.993,0.472-2.766,0.788-2.766c0.312,0,0.859,0.088,0.842,2.942
			c-0.012,1.669,0,3.109,0.314,3.109c0.141,0,0.368-1.345,0.368-2.654c0-2.189,0.421-2.189,0.754-2.189
			c0.332,0,0.508,0.402,0.524,2.592c0.014,1.745-0.188,4.202-0.188,5.692c0,3.625-1.177,3.663-1.177,4.892H6.966
			c-0.145-0.348-0.48-0.553-1.286-1.377c-0.814-0.829-2.656-2.419-4.107-2.731C0.601,10.659,1.042,9.769,1.561,9.458z"/>
	<rect fill="none" width="15" height="15"/>
</svg>
