<?xml version="1.0" encoding="utf-8"?>
<!-- Generator: Adobe Illustrator 19.2.1, SVG Export Plug-In . SVG Version: 6.00 Build 0)  -->
<svg version="1.1" xmlns="http://www.w3.org/2000/svg" xmlns:xlink="http://www.w3.org/1999/xlink" x="0px" y="0px"
	 viewBox="0 0 15 15" enable-background="new 0 0 15 15" xml:space="preserve">
<g id="图层_2">
</g>
<g id="图层_3">
</g>
<g id="图层_1">
	<g id="feather">
	</g>
	<g>
		<path fill="#BFBFBF" d="M4,7v5h7V7H4z M8,11H7V9h1V11z"/>
		<rect fill="#BFBFBF" width="2" height="2"/>
		<rect x="7" fill="#BFBFBF" width="1" height="2"/>
		<rect x="7" y="13" fill="#BFBFBF" width="1" height="2"/>
		<rect y="7" fill="#BFBFBF" width="1" height="1"/>
		<rect x="14" y="7" fill="#BFBFBF" width="1" height="1"/>
		<rect x="13" fill="#BFBFBF" width="2" height="2"/>
		<rect x="13" y="13" fill="#BFBFBF" width="2" height="2"/>
		<rect y="13" fill="#BFBFBF" width="2" height="2"/>
		<path fill="#BFBFBF" d="M13,2v11H2V2H13 M14,1H1v13h13V1L14,1z"/>
		<rect fill="none" width="15" height="15"/>
		<g>
			<path fill="#BFBFBF" d="M7.5,4C8.327,4,9,4.673,9,5.5v1.706C8.972,7.2,8.944,7.193,8.917,7.188C8.527,7.104,8.043,7,7.5,7
				S6.473,7.104,6.083,7.188C6.056,7.193,6.028,7.2,6,7.206V5.5C6,4.673,6.673,4,7.5,4 M7.5,3C6.119,3,5,4.119,5,5.5v2
				c0,0.607,0.216,0.777,0.576,0.777C6.034,8.277,6.726,8,7.5,8s1.466,0.277,1.924,0.277C9.784,8.277,10,8.107,10,7.5v-2
				C10,4.119,8.881,3,7.5,3L7.5,3z"/>
		</g>
	</g>
</g>
</svg>
