<?xml version="1.0" encoding="utf-8"?>
<!-- Generator: Adobe Illustrator 16.0.0, SVG Export Plug-In . SVG Version: 6.00 Build 0)  -->
<!DOCTYPE svg PUBLIC "-//W3C//DTD SVG 1.1//EN" "http://www.w3.org/Graphics/SVG/1.1/DTD/svg11.dtd">
<svg version="1.1" id="图层_1" xmlns="http://www.w3.org/2000/svg" xmlns:xlink="http://www.w3.org/1999/xlink" x="0px" y="0px"
	 viewBox="0 0 15 15" enable-background="new 0 0 15 15" xml:space="preserve">
	<polygon fill="#CFCFCF" points="6,3 0,7 1,7 0,7 0,8 1,8 0,8 6,12 6,11 1.972,8 2,8 2,7 1.972,7 6,4 		"/>
	<polygon fill="#CFCFCF" points="9,3 15,7 14,7 15,7 15,8 14,8 15,8 9,12 9,11 13.028,8 13,8 13,7 13.028,7 9,4 		"/>
	<rect fill="none" width="15" height="15"/>
</svg>
