<?xml version="1.0" encoding="UTF-8"?>
<svg width="15px" height="15px" viewBox="0 0 15 15" version="1.1" xmlns="http://www.w3.org/2000/svg" xmlns:xlink="http://www.w3.org/1999/xlink">
    <!-- Generator: Sketch 51.2 (57519) - http://www.bohemiancoding.com/sketch -->
    <title>对齐</title>
    <desc>Created with Sketch.</desc>
    <defs></defs>
    <g id="对齐" stroke="none" stroke-width="1" fill="none" fill-rule="evenodd">
        <g fill="#FFFFFF">
            <rect id="Rectangle-15" opacity="0" x="0" y="0" width="15" height="15"></rect>
            <path d="M13,8 L11,10 L11,8 L8.5,8 L8.5,7 L11,7 L11,5 L13,7 L13,2 L8,2 L10,4 L8,4 L8,6.5 L7,6.5 L7,4 L5,4 L7,2 L2,2 L2,7 L4,5 L4,7 L6.5,7 L6.5,8 L4,8 L4,10 L2,8 L2,13 L7,13 L5,11 L7,11 L7,8.5 L8,8.5 L8,11 L10,11 L8,13 L13,13 L13,8 Z M14,1 L14,11 L14,14 L1,14 L1,1 L14,1 Z" id="Combined-Shape"></path>
        </g>
    </g>
</svg>