<?xml version="1.0" encoding="utf-8"?>
<!-- Generator: Adobe Illustrator 19.2.1, SVG Export Plug-In . SVG Version: 6.00 Build 0)  -->
<svg version="1.1" xmlns="http://www.w3.org/2000/svg" xmlns:xlink="http://www.w3.org/1999/xlink" x="0px" y="0px"
	 width="15px" height="15px" viewBox="0 0 15 15" enable-background="new 0 0 15 15" xml:space="preserve">
<g id="图层_2">
</g>
<g id="图层_3">
</g>
<g id="图层_1">
	<g id="feather">
	</g>
	<g>
		<rect x="3" y="7" fill="#FFFFFF" width="2" height="3"/>
		<rect x="6" y="4" fill="#FFFFFF" width="2" height="3"/>
		<polygon fill="none" points="15,15 0,15 0,0 12.799,0 15,0 		"/>
		<rect x="1" fill="#FFFFFF" width="9" height="1"/>
		<rect x="1" y="14" fill="#FFFFFF" width="7" height="1"/>
		<rect x="1" y="1" fill="#FFFFFF" width="1" height="14"/>
		<rect x="13" y="4" fill="#FFFFFF" width="1" height="3"/>
		<polygon fill="#FFFFFF" points="14,4 12.4,2.4 10,0 10,4 		"/>
		<g>
			<g>
				<g>
					<polygon fill="#FFFFFF" points="9,5.999 15,11 9,15 					"/>
				</g>
			</g>
		</g>
		<circle fill="#FFFFFF" cx="4" cy="5" r="1"/>
		<polygon fill="#FFFFFF" points="7,8 6,10 8,10 		"/>
	</g>
</g>
</svg>
