<?xml version="1.0" encoding="utf-8"?>
<!-- Generator: Adobe Illustrator 16.0.0, SVG Export Plug-In . SVG Version: 6.00 Build 0)  -->
<!DOCTYPE svg PUBLIC "-//W3C//DTD SVG 1.1//EN" "http://www.w3.org/Graphics/SVG/1.1/DTD/svg11.dtd">
<svg version="1.1" xmlns="http://www.w3.org/2000/svg" xmlns:xlink="http://www.w3.org/1999/xlink" x="0px" y="0px" width="15px"
	 height="15px" viewBox="0 0 15 15" enable-background="new 0 0 15 15" xml:space="preserve">
<g id="图层_2">
</g>
<g id="图层_3">
</g>
<g id="图层_1">
	<g>
		<g>
			<rect x="1" y="1" fill="none" width="13" height="13"/>
			<path fill="#4F89FF" d="M1,14.487c-0.127,0-0.252-0.05-0.345-0.143c-0.136-0.136-0.179-0.338-0.111-0.518l1.695-4.469
				c0.096-0.253,0.379-0.376,0.629-0.283C3.12,9.171,3.247,9.452,3.151,9.704L1.84,13.16l3.456-1.312
				c0.252-0.093,0.533,0.03,0.629,0.283c0.096,0.252-0.031,0.533-0.283,0.629l-4.469,1.695C1.116,14.478,1.059,14.487,1,14.487z"/>
			<path fill="#4F89FF" d="M1.947,11.579l-0.431,1.466c-0.036,0.124-0.002,0.258,0.089,0.35c0.067,0.066,0.158,0.104,0.25,0.104
				c0.033,0,0.067-0.005,0.1-0.015l1.466-0.431L1.947,11.579z"/>
			<polygon fill="#4D4D4D" points="9.996,5.824 9.99,5.83 9.089,4.927 9.094,4.921 7.887,3.715 2.326,9.227 3.338,10.239 
				4.636,10.346 4.707,11.609 5.773,12.675 11.334,7.162 			"/>
			<polygon fill="#4D4D4D" points="11.833,6.614 8.386,3.167 9.174,2.428 12.621,5.875 			"/>
			<path fill="#4D4D4D" d="M13.03,5.273L9.727,1.97l0.507-0.513c0.451-0.451,1.187-0.447,1.643,0.009l1.652,1.651
				c0.456,0.457,0.46,1.192,0.009,1.644L13.03,5.273z"/>
		</g>
		<rect fill="none" width="15" height="15"/>
	</g>
	<g id="feather">
	</g>
</g>
</svg>
