<svg xmlns="http://www.w3.org/2000/svg" viewBox="0 0 68 68"><path fill="#001626" d="M1 1h66v66H1z"/><path fill="#00BFFF" d="M66 2v64H2V2h64m2-2H0v68h68V0z"/><g><linearGradient id="a" gradientUnits="userSpaceOnUse" x1="14.006" y1="27.824" x2="53.641" y2="38.521"><stop offset="0" stop-color="#0459b2"/><stop offset="1" stop-color="#00bfff"/></linearGradient><path fill="url(#a)" d="M43.5 45.6H30l-6.3-11.8 6.7-11.3h13.1l5.7-9.7-24.5-.1L12.4 34l12.2 21.2 24.5.1z"/><path fill="#00BFFF" d="M23.7 34.1l12.5-21.3-11.5-.1L12.4 34l12.2 21.2h11.5z"/><linearGradient id="b" gradientUnits="userSpaceOnUse" x1="14.006" y1="27.824" x2="53.641" y2="38.521"><stop offset="0" stop-color="#0459b2"/><stop offset="1" stop-color="#00bfff"/></linearGradient><path fill="url(#b)" d="M43.5 45.6H30l-6.3-11.8 6.7-11.3h13.1l5.7-9.7-24.5-.1L12.4 34l12.2 21.2 24.5.1z"/><linearGradient id="c" gradientUnits="userSpaceOnUse" x1="-39.743" y1="132.713" x2="-12.348" y2="132.713" gradientTransform="rotate(15.105 373.452 283.465)"><stop offset="0" stop-color="#0459b2"/><stop offset="1" stop-color="#00bfff"/></linearGradient><path fill="url(#c)" d="M36.9 34.2l3-5-24.4-.1-2 2.8c-.8 1.3-.8 2.8 0 4.1l2 2.8 24.4.1-3-4.7z"/><path fill="#00BFFF" d="M23.7 34.1l12.5-21.3-11.5-.1L12.4 34l12.2 21.2h11.5z"/><g><linearGradient id="d" gradientUnits="userSpaceOnUse" x1="45.231" y1="32.356" x2="55.122" y2="35.6"><stop offset="0" stop-color="#0459b2"/><stop offset="1" stop-color="#00bfff"/></linearGradient><path fill="url(#d)" d="M52.9 29.2h-5.4L44.7 34l2.7 4.7h5.5l2.7-4.7z"/></g></g></svg>