<?xml version="1.0" encoding="utf-8"?>
<!-- Generator: Adobe Illustrator 19.2.1, SVG Export Plug-In . SVG Version: 6.00 Build 0)  -->
<svg version="1.1" xmlns="http://www.w3.org/2000/svg" xmlns:xlink="http://www.w3.org/1999/xlink" x="0px" y="0px"
	 viewBox="0 0 15 15" enable-background="new 0 0 15 15" xml:space="preserve">
<g id="图层_2">
</g>
<g id="图层_3">
</g>
<g id="图层_1">
	<g>
		<polygon fill="none" points="15,15 0,15 0,0 11.999,0 15,0 		"/>
		<rect x="1" y="3" fill="#C5C5C5" width="7" height="1"/>
		<rect x="1" y="14" fill="#C5C5C5" width="10" height="1"/>
		<rect x="1" y="3" fill="#C5C5C5" width="1" height="12"/>
		<rect x="13" y="3" fill="#C5C5C5" width="1" height="10"/>
		<rect x="3" fill="#C5C5C5" width="8" height="1"/>
		<rect x="3" y="1" fill="#C5C5C5" width="1" height="1"/>
		<rect x="12" y="12" fill="#C5C5C5" width="1" height="1"/>
		<rect x="10" y="6" fill="#C5C5C5" width="1" height="8"/>
		<polygon fill="#C5C5C5" points="7,3 7.999,3.999 11,7 7,7 		"/>
		<polygon fill="#C5C5C5" points="10,0 10.999,0.999 14,4 10,4 		"/>
		<line fill="none" stroke="#C5C5C5" stroke-miterlimit="10" x1="6" y1="7.5" x2="3" y2="7.5"/>
		<line fill="none" stroke="#C5C5C5" stroke-miterlimit="10" x1="8" y1="9.5" x2="3" y2="9.5"/>
		<line fill="none" stroke="#C5C5C5" stroke-miterlimit="10" x1="7" y1="11.5" x2="3" y2="11.5"/>
	</g>
	<g id="feather">
	</g>
</g>
</svg>
