<?xml version="1.0" encoding="utf-8"?>
<!-- Generator: Adobe Illustrator 19.2.1, SVG Export Plug-In . SVG Version: 6.00 Build 0)  -->
<svg version="1.1" xmlns="http://www.w3.org/2000/svg" xmlns:xlink="http://www.w3.org/1999/xlink" x="0px" y="0px"
	 viewBox="0 0 16 16" enable-background="new 0 0 16 16" xml:space="preserve">
<g id="图层_2">
</g>
<g id="图层_3">
</g>
<g id="图层_1">
	<g id="feather">
	</g>
	<g>
		<path fill="#B4B4B4" d="M14,10H2V1h12V10z M15,0H1v11h14V0z"/>
		<polygon fill="#B4B4B4" points="3,9 5,3 10,9 		"/>
		<rect x="11" y="2" fill="#B4B4B4" width="2" height="2"/>
		<rect x="1" y="9" fill="#AD8BEF" width="14" height="7"/>
		<rect x="2" y="10" width="1" height="5"/>
		<rect x="6" y="10" width="1" height="5"/>
		<rect x="8" y="10" width="1" height="5"/>
		<rect x="2" y="10" width="3" height="1"/>
		<rect x="6" y="10" width="3" height="1"/>
		<rect x="12" y="12" width="2" height="1"/>
		<rect x="13" y="12" width="1" height="2.001"/>
		<rect x="10" y="10" width="1" height="5"/>
		<rect x="11" y="10" width="3" height="1"/>
		<rect x="11" y="14" width="3" height="1"/>
		<rect x="3" y="12" width="2" height="1"/>
		<rect x="4" y="11" width="1" height="2"/>
		<rect fill="none" width="16" height="16"/>
	</g>
</g>
</svg>
