<?xml version="1.0" encoding="utf-8"?>
<!-- Generator: Adobe Illustrator 19.2.1, SVG Export Plug-In . SVG Version: 6.00 Build 0)  -->
<svg version="1.1" xmlns="http://www.w3.org/2000/svg" xmlns:xlink="http://www.w3.org/1999/xlink" x="0px" y="0px"
	 viewBox="0 0 16 16" enable-background="new 0 0 16 16" xml:space="preserve">
<g id="图层_2">
</g>
<g id="图层_3">
</g>
<g id="图层_1">
	<g id="feather">
	</g>
	<g>
		<rect x="1" fill="#B4B4B4" width="8" height="2"/>
		<rect x="1" fill="#B4B4B4" width="1" height="15"/>
		<rect x="14" y="4" fill="#B4B4B4" width="1" height="10"/>
		<rect x="1" y="14" fill="#B4B4B4" width="14" height="2"/>
		<rect fill="none" width="16" height="16"/>
		<polygon fill="#B4B4B4" points="15,3.999 11,3.999 11,0 		"/>
		<g>
			<path fill="#3B82FF" d="M9.109,6.068c0-0.748-0.44-1.331-1.42-1.331c-0.66,0-1.265,0.33-1.848,0.945L5.302,5.188
				C5.984,4.495,6.71,4,7.778,4C9.141,4,10,4.792,10,5.991c0,1.694-2.376,2.068-2.068,3.752H7.128
				C6.765,7.883,9.109,7.355,9.109,6.068z M7.546,10.776c0.451,0,0.836,0.309,0.836,0.814s-0.385,0.825-0.836,0.825
				S6.71,12.096,6.71,11.59S7.095,10.776,7.546,10.776z"/>
		</g>
	</g>
</g>
</svg>
