<?xml version="1.0" encoding="utf-8"?>
<!-- Generator: Adobe Illustrator 16.0.0, SVG Export Plug-In . SVG Version: 6.00 Build 0)  -->
<!DOCTYPE svg PUBLIC "-//W3C//DTD SVG 1.1//EN" "http://www.w3.org/Graphics/SVG/1.1/DTD/svg11.dtd">
<svg version="1.1" xmlns="http://www.w3.org/2000/svg" xmlns:xlink="http://www.w3.org/1999/xlink" x="0px" y="0px" width="15px"
	 height="15px" viewBox="0 0 15 15" enable-background="new 0 0 15 15" xml:space="preserve">
<g id="图层_2">
</g>
<g id="图层_3">
</g>
<g id="图层_1">
	<g>
		<g>
			<rect x="4" fill="#c2c2c2" width="1" height="3"/>
			<rect x="4" y="4" fill="#c2c2c2" width="1" height="3"/>
			<rect x="4" y="8" fill="#c2c2c2" width="1" height="3"/>
			<rect x="4" y="12" fill="#c2c2c2" width="1" height="3"/>
			<rect y="4" fill="#c2c2c2" width="3" height="1"/>
			<rect x="4" y="4" fill="#c2c2c2" width="3" height="1"/>
			<rect x="8" y="4" fill="#c2c2c2" width="3" height="1"/>
			<rect x="12" y="4" fill="#c2c2c2" width="3" height="1"/>
			<rect y="10" fill="#c2c2c2" width="3" height="1"/>
			<rect x="4" y="10" fill="#c2c2c2" width="3" height="1"/>
			<rect x="8" y="10" fill="#c2c2c2" width="3" height="1"/>
			<rect x="12" y="10" fill="#c2c2c2" width="3" height="1"/>
			<rect x="10" fill="#c2c2c2" width="1" height="3"/>
			<rect x="10" y="4" fill="#c2c2c2" width="1" height="3"/>
			<rect x="10" y="8" fill="#c2c2c2" width="1" height="3"/>
			<rect x="10" y="12" fill="#c2c2c2" width="1" height="3"/>
		</g>
		<rect fill="none" width="15" height="15"/>
	</g>
	<g id="feather">
	</g>
</g>
</svg>
