<?xml version="1.0" encoding="utf-8"?>
<!-- Generator: Adobe Illustrator 16.0.0, SVG Export Plug-In . SVG Version: 6.00 Build 0)  -->
<!DOCTYPE svg PUBLIC "-//W3C//DTD SVG 1.1//EN" "http://www.w3.org/Graphics/SVG/1.1/DTD/svg11.dtd">
<svg version="1.1" xmlns="http://www.w3.org/2000/svg" xmlns:xlink="http://www.w3.org/1999/xlink" x="0px" y="0px" width="15px"
	 height="15px" viewBox="0 0 15 15" enable-background="new 0 0 15 15" xml:space="preserve">
<g id="图层_2">
</g>
<g id="图层_3">
</g>
<g id="图层_1">
	<g>
		<g>
			<g>
				<g>
					<polygon fill="#4D4D4D" points="7.5,9.568 0.763,5.94 1.237,5.06 7.5,8.432 13.763,5.06 14.237,5.94 					"/>
				</g>
				<g>
					<polygon fill="#4D4D4D" points="7.5,12 3.785,10 1,11.5 7.5,15 14,11.5 11.215,10 					"/>
				</g>
				<g>
					
						<rect x="1.68" y="3.639" transform="matrix(0.5998 0.8001 -0.8001 0.5998 4.6648 0.1522)" fill="#4D4D4D" width="1" height="2.201"/>
				</g>
				<g>
					
						<rect x="12.679" y="3.639" transform="matrix(-0.5998 0.8001 -0.8001 -0.5998 24.877 -2.9621)" fill="#4D4D4D" width="1" height="2.201"/>
				</g>
			</g>
		</g>
		<polygon fill="#10C98C" points="4.442,4 7.567,0.232 10.554,4 		"/>
		<rect x="7" y="4" fill="#10C98C" width="1" height="3"/>
		<g>
			<rect fill="none" width="15" height="15"/>
		</g>
	</g>
	<g id="feather">
	</g>
</g>
</svg>
