<?xml version="1.0" encoding="utf-8"?>
<!-- Generator: Adobe Illustrator 19.2.1, SVG Export Plug-In . SVG Version: 6.00 Build 0)  -->
<svg version="1.1" xmlns="http://www.w3.org/2000/svg" xmlns:xlink="http://www.w3.org/1999/xlink" x="0px" y="0px"
	 viewBox="0 0 21 21" enable-background="new 0 0 21 21" xml:space="preserve">
<g id="图层_2">
</g>
<g id="图层_3">
</g>
<g id="图层_1">
	<g id="feather">
	</g>
	<g>
		<rect opacity="0.3" fill="none" width="21" height="21"/>
		<path fill="#BFBFBF" d="M11.924,5.999c0-1.25-0.825-2.05-2.125-2.05c-1.1,0-1.975,0.575-2.774,1.4L5,3.5
			C6.3,2.025,8.074,1,10.249,1c2.999,0,5.199,1.55,5.199,4.749c0,3.549-4.823,4.727-4.448,8.251H8
			C7.4,9.976,11.924,8.398,11.924,5.999z"/>
		<path fill="#4F86FF" d="M7.6,18.399C7.6,17.049,8.574,16,9.874,16c1.325,0,2.3,1.049,2.3,2.399c0,1.35-0.975,2.399-2.3,2.399
			C8.574,20.799,7.6,19.749,7.6,18.399z"/>
	</g>
</g>
</svg>
