<?xml version="1.0" encoding="utf-8"?>
<!-- Generator: Adobe Illustrator 19.2.1, SVG Export Plug-In . SVG Version: 6.00 Build 0)  -->
<svg version="1.1" xmlns="http://www.w3.org/2000/svg" xmlns:xlink="http://www.w3.org/1999/xlink" x="0px" y="0px"
	 viewBox="0 0 15 15" enable-background="new 0 0 15 15" xml:space="preserve">
<g id="图层_2">
</g>
<g id="图层_3">
</g>
<g id="图层_1">
	<g id="feather">
	</g>
	<g>
		<g>
			<path fill="#BFBFBF" d="M13.004,10.564l0.625-1.497l-1.66-1.038c0.072-0.467,0.072-0.932,0.006-1.389l1.658-1.044l-0.616-1.503
				l-1.901,0.441c-0.271-0.375-0.602-0.708-0.982-0.994l0.432-1.902L9.066,1.011L8.039,2.659C7.569,2.585,7.1,2.582,6.641,2.649
				L5.62,0.999L4.117,1.613l0.412,1.896C4.154,3.783,3.818,4.115,3.531,4.497L1.648,4.052L1.023,5.549L2.65,6.6
				c-0.073,0.47-0.072,0.94-0.004,1.403L1,9.02l0.615,1.505l1.898-0.414c0.275,0.373,0.604,0.706,0.987,0.99l-0.445,1.892
				l1.497,0.625l1.058-1.642c0.467,0.07,0.938,0.068,1.394-0.002l1.044,1.657l1.501-0.617l-0.442-1.904
				c0.37-0.273,0.702-0.601,0.983-0.979L13.004,10.564z M6.298,9.765C4.949,9.2,4.312,7.649,4.876,6.295
				C5.44,4.947,6.994,4.311,8.344,4.877c1.35,0.565,1.986,2.116,1.422,3.468C9.201,9.694,7.649,10.33,6.298,9.765z"/>
		</g>
		<rect fill="none" width="15" height="15"/>
	</g>
</g>
</svg>
