<?xml version="1.0" encoding="utf-8"?>
<!-- Generator: Adobe Illustrator 19.2.1, SVG Export Plug-In . SVG Version: 6.00 Build 0)  -->
<svg version="1.1" xmlns="http://www.w3.org/2000/svg" xmlns:xlink="http://www.w3.org/1999/xlink" x="0px" y="0px"
	 viewBox="0 0 15 15" enable-background="new 0 0 15 15" xml:space="preserve">
<g id="图层_2">
</g>
<g id="图层_3">
</g>
<g id="图层_1">
	<g id="feather">
	</g>
	<g>
		<rect opacity="0.3" fill="none" width="15" height="15"/>
		<path fill="none" stroke="#BFBFBF" stroke-width="2" stroke-miterlimit="10" d="M6.406,8.5L6.406,8.5
			c-0.778-0.778-0.778-2.051,0-2.828L9.588,2.49c0.778-0.778,2.051-0.778,2.828,0l0,0c0.778,0.778,0.778,2.051,0,2.828l-1.768,1.768
			"/>
		<path fill="none" stroke="#BFBFBF" stroke-width="2" stroke-miterlimit="10" d="M8.497,6.406L8.497,6.406
			c0.778,0.778,0.778,2.051,0,2.828l-3.182,3.182c-0.778,0.778-2.051,0.778-2.828,0l0,0c-0.778-0.778-0.778-2.051,0-2.828
			L4.254,7.82"/>
	</g>
</g>
</svg>
