<?xml version="1.0" encoding="utf-8"?>
<!-- Generator: Adobe Illustrator 19.2.1, SVG Export Plug-In . SVG Version: 6.00 Build 0)  -->
<svg version="1.1" xmlns="http://www.w3.org/2000/svg" xmlns:xlink="http://www.w3.org/1999/xlink" x="0px" y="0px"
	 viewBox="0 0 15 15" enable-background="new 0 0 15 15" xml:space="preserve">
<g id="图层_2">
</g>
<g id="图层_3">
</g>
<g id="图层_1">
	<g id="feather">
	</g>
	<g>
		<rect opacity="0.3" fill="none" width="15" height="15"/>
		<path fill="none" stroke="#BFBFBF" stroke-width="2" stroke-miterlimit="10" d="M7,5l2.588-2.51c0.778-0.778,2.051-0.778,2.828,0
			l0,0c0.778,0.778,0.778,2.051,0,2.828L10,8"/>
		<path fill="none" stroke="#BFBFBF" stroke-width="2" stroke-miterlimit="10" d="M8,10l-2.685,2.417
			c-0.778,0.778-2.051,0.778-2.828,0l0,0c-0.778-0.778-0.778-2.051,0-2.828L5,7"/>
		<line fill="none" stroke="#BFBFBF" stroke-width="2" stroke-miterlimit="10" x1="6" y1="1" x2="6" y2="3"/>
		<line fill="none" stroke="#BFBFBF" stroke-width="2" stroke-miterlimit="10" x1="4" y1="4" x2="2" y2="2"/>
		<line fill="none" stroke="#BFBFBF" stroke-width="2" stroke-miterlimit="10" x1="3" y1="6" x2="1" y2="6"/>
		<line fill="none" stroke="#BFBFBF" stroke-width="2" stroke-miterlimit="10" x1="9" y1="14" x2="9" y2="12"/>
		<line fill="none" stroke="#BFBFBF" stroke-width="2" stroke-miterlimit="10" x1="11" y1="11" x2="13" y2="13"/>
		<line fill="none" stroke="#BFBFBF" stroke-width="2" stroke-miterlimit="10" x1="12" y1="9" x2="14" y2="9"/>
	</g>
</g>
</svg>
