<?xml version="1.0" encoding="utf-8"?>
<!-- Generator: Adobe Illustrator 16.0.0, SVG Export Plug-In . SVG Version: 6.00 Build 0)  -->
<!DOCTYPE svg PUBLIC "-//W3C//DTD SVG 1.1//EN" "http://www.w3.org/Graphics/SVG/1.1/DTD/svg11.dtd">
<svg version="1.1" xmlns="http://www.w3.org/2000/svg" xmlns:xlink="http://www.w3.org/1999/xlink" x="0px" y="0px" width="15px"
	 height="15px" viewBox="0 0 15 15" enable-background="new 0 0 15 15" xml:space="preserve">
<g id="图层_2">
</g>
<g id="图层_3">
</g>
<g id="图层_1">
	<g>
		<g>
			<polygon fill="#4D4D4D" points="1,14 1,12 1,1 10,1 10,2 2,2 2,13 13,13 13,9 14,9 14,12 14,14 			"/>
			<g>
				<path fill="#4D4D4D" d="M5.855,12c-0.09,0-0.178-0.035-0.242-0.101c-0.096-0.095-0.126-0.237-0.078-0.364l1.191-3.143
					C6.795,8.214,6.994,8.128,7.17,8.193c0.177,0.067,0.266,0.265,0.199,0.442l-0.923,2.431l2.431-0.923
					c0.178-0.065,0.375,0.021,0.443,0.199c0.066,0.178-0.022,0.375-0.199,0.442l-3.145,1.192C5.938,11.993,5.896,12,5.855,12z"/>
				<path fill="#4D4D4D" d="M6.521,9.954l-0.303,1.031c-0.025,0.087-0.002,0.182,0.062,0.246c0.047,0.047,0.111,0.072,0.176,0.072
					c0.023,0,0.048-0.003,0.07-0.01l1.031-0.303L6.521,9.954z"/>
				<polygon fill="#4D4D4D" points="12.184,5.906 12.18,5.91 11.545,5.274 11.549,5.271 10.699,4.422 6.788,8.3 7.5,9.012 
					8.413,9.087 8.463,9.976 9.213,10.725 13.125,6.848 				"/>
				<polygon fill="#4D4D4D" points="13.476,6.462 11.051,4.037 11.605,3.517 14.03,5.941 				"/>
				<path fill="#4D4D4D" d="M14.318,5.519l-2.324-2.323l0.356-0.361c0.317-0.317,0.835-0.314,1.155,0.007l1.162,1.161
					c0.321,0.321,0.324,0.839,0.006,1.156L14.318,5.519z"/>
			</g>
			<rect x="3" y="3" fill="#4D4D4D" width="6" height="1"/>
			<rect x="3" y="5" fill="#4D4D4D" width="4" height="1"/>
			<rect x="3" y="7" fill="#4D4D4D" width="2" height="1"/>
		</g>
		<rect fill="none" width="15" height="15"/>
	</g>
	<g id="feather">
	</g>
</g>
</svg>
