<?xml version="1.0" encoding="utf-8"?>
<!-- Generator: Adobe Illustrator 16.0.0, SVG Export Plug-In . SVG Version: 6.00 Build 0)  -->
<!DOCTYPE svg PUBLIC "-//W3C//DTD SVG 1.1//EN" "http://www.w3.org/Graphics/SVG/1.1/DTD/svg11.dtd">
<svg version="1.1" xmlns="http://www.w3.org/2000/svg" xmlns:xlink="http://www.w3.org/1999/xlink" x="0px" y="0px" width="15px"
	 height="15px" viewBox="0 0 15 15" enable-background="new 0 0 15 15" xml:space="preserve">
<g id="图层_2">
</g>
<g id="图层_3">
</g>
<g id="图层_1">
	<g>
		<g>
			<g>
				<path fill="#4D4D4D" d="M11.023,6.157c-0.166,0.113-0.545-0.038-0.952-0.445S9.551,4.961,9.666,4.795l2.367-3.312
					c0.115-0.165,0.326-0.185,0.469-0.042l1.902,1.903c0.143,0.142,0.123,0.353-0.043,0.466L11.023,6.157z"/>
			</g>
			<path fill="#4D4D4D" d="M10.66,7.079c-0.094-0.199-0.549-0.296-0.986-0.722c-0.438-0.425-0.496-0.89-0.82-0.771
				c-4.82,1.757-1.92,3.856-4.256,5.665C9.562,11.251,10.66,10.116,10.66,7.079z"/>
			<polygon fill="#4D4D4D" points="13,6 13,13 2,13 2,2 9,2 9,1 1,1 1,14 14,14 14,6 			"/>
		</g>
		<rect fill="none" width="15" height="15"/>
	</g>
	<g id="feather">
	</g>
</g>
</svg>
