<?xml version="1.0" encoding="utf-8"?>
<!-- Generator: Adobe Illustrator 16.0.0, SVG Export Plug-In . SVG Version: 6.00 Build 0)  -->
<!DOCTYPE svg PUBLIC "-//W3C//DTD SVG 1.1//EN" "http://www.w3.org/Graphics/SVG/1.1/DTD/svg11.dtd">
<svg version="1.1" xmlns="http://www.w3.org/2000/svg" xmlns:xlink="http://www.w3.org/1999/xlink" x="0px" y="0px" width="15px"
	 height="15px" viewBox="0 0 15 15" enable-background="new 0 0 15 15" xml:space="preserve">
<g id="图层_2">
</g>
<g id="图层_3">
</g>
<g id="图层_1">
	<g>
		<g>
			<polygon fill="#4D4D4D" points="2,13 2,1 1,1 1,13 1,14 2,14 14,14 14,13 			"/>
			<g>
				<path fill="#4D4D4D" d="M13.637,11.601h-0.773l-1.227-1.793l-1.27,1.793h-0.73l1.631-2.294L9.637,7.021h0.787l1.23,1.779
					l1.252-1.779h0.73L12.015,9.28L13.637,11.601z"/>
			</g>
			<g>
				<path fill="#4D4D4D" d="M7.68,1.021L5.944,5.601C5.692,6.274,5.442,6.744,5.195,7.012C4.947,7.277,4.666,7.411,4.35,7.411
					c-0.281,0-0.561-0.052-0.836-0.153l0.115-0.55c0.223,0.07,0.422,0.105,0.598,0.105c0.246,0,0.447-0.095,0.605-0.286
					C4.99,6.338,5.15,6.025,5.312,5.592l-1.718-4.57H4.34l1.297,3.652l1.297-3.652H7.68z"/>
			</g>
		</g>
		<rect fill="none" width="15" height="15"/>
	</g>
	<g id="feather">
	</g>
</g>
</svg>
