<?xml version="1.0" encoding="utf-8"?>
<!-- Generator: Adobe Illustrator 16.0.0, SVG Export Plug-In . SVG Version: 6.00 Build 0)  -->
<!DOCTYPE svg PUBLIC "-//W3C//DTD SVG 1.1//EN" "http://www.w3.org/Graphics/SVG/1.1/DTD/svg11.dtd">
<svg version="1.1" xmlns="http://www.w3.org/2000/svg" xmlns:xlink="http://www.w3.org/1999/xlink" x="0px" y="0px" width="104px"
	 height="104px" viewBox="0 0 104 104" enable-background="new 0 0 104 104" xml:space="preserve">
<g id="图层_2">
</g>
<g id="图层_3">
</g>
<g id="图层_1">
	<g id="feather">
	</g>
	<g>
		<g opacity="0.2">
			<g>
				<polyline fill="none" stroke="#FFFFFF" stroke-miterlimit="10" points="103.5,101 103.5,103.5 100,103.5 				"/>
				<line fill="none" stroke="#FFFFFF" stroke-miterlimit="10" stroke-dasharray="6,6" x1="95" y1="103.5" x2="6" y2="103.5"/>
				<polyline fill="none" stroke="#FFFFFF" stroke-miterlimit="10" points="3,103.5 0.5,103.5 0.5,101 				"/>
				<line fill="none" stroke="#FFFFFF" stroke-miterlimit="10" stroke-dasharray="6,6" x1="0.5" y1="95" x2="0.5" y2="6"/>
				<polyline fill="none" stroke="#FFFFFF" stroke-miterlimit="10" points="0.5,4 0.5,0.5 3,0.5 				"/>
				<line fill="none" stroke="#FFFFFF" stroke-miterlimit="10" stroke-dasharray="6,6" x1="9" y1="0.5" x2="98" y2="0.5"/>
				<polyline fill="none" stroke="#FFFFFF" stroke-miterlimit="10" points="100,0.5 103.5,0.5 103.5,4 				"/>
				<line fill="none" stroke="#FFFFFF" stroke-miterlimit="10" stroke-dasharray="6,6" x1="103.5" y1="9" x2="103.5" y2="98"/>
			</g>
		</g>
		<g opacity="0.2">
			<g>
				<rect x="43" y="17" fill="#FFFFFF" width="17" height="38"/>
			</g>
			<polygon fill="#FFFFFF" points="27.934,41 52.066,70.094 75.133,41 			"/>
		</g>
		<rect x="15" y="75" fill="none" width="74" height="16"/>
		<text transform="matrix(1 0 0 1 15 87.7515)" opacity="0.2" fill="#FFFFFF" font-family="'SegoeUI-Bold'" font-size="15">Drop Here</text>
	</g>
</g>
</svg>
