<?xml version="1.0" encoding="utf-8"?>
<!-- Generator: Adobe Illustrator 16.0.0, SVG Export Plug-In . SVG Version: 6.00 Build 0)  -->
<!DOCTYPE svg PUBLIC "-//W3C//DTD SVG 1.1//EN" "http://www.w3.org/Graphics/SVG/1.1/DTD/svg11.dtd">
<svg version="1.1" xmlns="http://www.w3.org/2000/svg" xmlns:xlink="http://www.w3.org/1999/xlink" x="0px" y="0px" width="15px"
	 height="15px" viewBox="0 0 15 15" enable-background="new 0 0 15 15" xml:space="preserve">
<g id="图层_2">
</g>
<g id="图层_3">
</g>
<g id="图层_1">
	<g id="feather">
	</g>
	<g>
		<rect x="1" fill="#c2c2c2" width="6" height="2"/>
		<rect x="1" y="1.228" fill="#c2c2c2" width="1" height="12.001"/>
		<rect x="1" y="13" fill="#c2c2c2" width="12" height="2"/>
		<rect x="2" y="5" fill="#ECA74E" width="13" height="7"/>
		<polygon fill="#c2c2c2" points="13,4 9,4 9,0.001 		"/>
		<rect x="5" y="9" width="1" height="1"/>
		<rect fill="none" width="15" height="15"/>
		<rect x="6" y="6" width="1" height="1"/>
		<rect x="5" y="7" width="1" height="1"/>
		<rect x="4" y="8" width="1" height="1"/>
		<rect x="6" y="10" width="1" height="1"/>
		<rect x="11" y="9" width="1" height="1"/>
		<rect x="10" y="6" width="1" height="1"/>
		<rect x="11" y="7" width="1" height="1"/>
		<rect x="12" y="8" width="1" height="1"/>
		<rect x="10" y="10" width="1" height="1"/>
	</g>
</g>
</svg>
