<?xml version="1.0" encoding="utf-8"?>
<!-- Generator: Adobe Illustrator 16.0.0, SVG Export Plug-In . SVG Version: 6.00 Build 0)  -->
<!DOCTYPE svg PUBLIC "-//W3C//DTD SVG 1.1//EN" "http://www.w3.org/Graphics/SVG/1.1/DTD/svg11.dtd">
<svg version="1.1" id="图层_1" xmlns="http://www.w3.org/2000/svg" xmlns:xlink="http://www.w3.org/1999/xlink" x="0px" y="0px"
	 width="2000px" height="2000px" viewBox="0 0 2000 2000" enable-background="new 0 0 2000 2000" xml:space="preserve">
<g id="图层_2">
</g>
<g id="图层_3">
</g>
<g id="图层_1_1_">
	<g id="feather">
	</g>
	<g>
		<polygon fill="none" points="2000,2000 0,2000 0,0 1599.867,0 2000,0 		"/>
		<rect x="133.333" y="400" fill="#4D4D4D" width="933.333" height="133.333"/>
		<rect x="133.333" y="1866.667" fill="#4D4D4D" width="1333.333" height="133.333"/>
		<rect x="133.333" y="400" fill="#4D4D4D" width="133.333" height="1600"/>
		<rect x="1733.333" y="400" fill="#4D4D4D" width="133.334" height="1333.333"/>
		<rect x="400" fill="#4D4D4D" width="1066.667" height="133.333"/>
		<rect x="400" y="133.333" fill="#4D4D4D" width="133.333" height="133.333"/>
		<rect x="1600" y="1600" fill="#4D4D4D" width="133.333" height="133.333"/>
		<rect x="1333.333" y="799.866" fill="#4D4D4D" width="133.334" height="133.334"/>
		<polygon fill="#4D4D4D" points="933.333,400 1066.533,533.2 1466.667,933.333 933.333,933.333 		"/>
		<polygon fill="#4D4D4D" points="1333.333,0.133 1466.533,133.2 1866.667,533.333 1333.333,533.333 		"/>
		<rect x="533.333" y="1066.667" fill="#4D4D4D" width="400" height="133.333"/>
		<rect x="666.667" y="1200" fill="#4D4D4D" width="133.333" height="533.333"/>
		<rect x="1066.667" y="1066.667" fill="#4D4D4D" width="400" height="133.333"/>
		<rect x="1066.667" y="1200" fill="#4D4D4D" width="133.333" height="266.667"/>
		<rect x="1200" y="1333.333" fill="#4D4D4D" width="266.667" height="133.334"/>
		<rect x="1333.333" y="1466.667" fill="#4D4D4D" width="133.334" height="266.666"/>
		<rect x="1066.667" y="1600" fill="#4D4D4D" width="266.666" height="133.333"/>
	</g>
</g>
</svg>
