<?xml version="1.0" encoding="utf-8"?>
<!-- Generator: Adobe Illustrator 19.2.1, SVG Export Plug-In . SVG Version: 6.00 Build 0)  -->
<svg version="1.1" xmlns="http://www.w3.org/2000/svg" xmlns:xlink="http://www.w3.org/1999/xlink" x="0px" y="0px"
	 viewBox="0 0 15 15" enable-background="new 0 0 15 15" xml:space="preserve">
<g id="图层_2">
</g>
<g id="图层_3">
</g>
<g id="图层_1">
	<g id="feather">
	</g>
	<g>
		<polygon fill="none" points="15,15 0,15 0,0 11.999,0 15,0 		"/>
		<rect x="1" y="3" fill="#FFFFFF" width="7" height="1"/>
		<rect x="1" y="14" fill="#FFFFFF" width="10" height="1"/>
		<rect x="1" y="3" fill="#FFFFFF" width="1" height="12"/>
		<rect x="13" y="3" fill="#FFFFFF" width="1" height="10"/>
		<rect x="3" fill="#FFFFFF" width="8" height="1"/>
		<rect x="3" y="1" fill="#FFFFFF" width="1" height="1"/>
		<rect x="12" y="12" fill="#FFFFFF" width="1" height="1"/>
		<rect x="10" y="5.999" fill="#FFFFFF" width="1" height="1"/>
		<polygon fill="#FFFFFF" points="7,3 7.999,3.999 11,7 7,7 		"/>
		<polygon fill="#FFFFFF" points="10,0.001 10.999,0.999 14,4 10,4 		"/>
		<rect x="4" y="8" fill="#FFFFFF" width="3" height="1"/>
		<rect x="5" y="9" fill="#FFFFFF" width="1" height="4"/>
		<rect x="8" y="8" fill="#FFFFFF" width="3" height="1"/>
		<rect x="8" y="9" fill="#FFFFFF" width="1" height="2"/>
		<rect x="9" y="10" fill="#FFFFFF" width="2" height="1"/>
		<rect x="10" y="11" fill="#FFFFFF" width="1" height="2"/>
		<rect x="8" y="12" fill="#FFFFFF" width="2" height="1"/>
	</g>
</g>
</svg>