<?xml version="1.0" encoding="utf-8"?>
<!-- Generator: Adobe Illustrator 16.0.0, SVG Export Plug-In . SVG Version: 6.00 Build 0)  -->
<!DOCTYPE svg PUBLIC "-//W3C//DTD SVG 1.1//EN" "http://www.w3.org/Graphics/SVG/1.1/DTD/svg11.dtd">
<svg version="1.1" xmlns="http://www.w3.org/2000/svg" xmlns:xlink="http://www.w3.org/1999/xlink" x="0px" y="0px" width="15px"
	 height="15px" viewBox="0 0 15 15" enable-background="new 0 0 15 15" xml:space="preserve">
<g id="图层_2">
</g>
<g id="图层_3">
</g>
<g id="图层_1">
	<g id="feather">
	</g>
	<g>
		<g>
			<path fill="#4D4D4D" d="M14,7H1c0,0,0,0.225,0,0.5V9c0,0.275,0,0,0,1h13c0,0,0-0.725,0-1V7.5C14,7.225,14,7.291,14,7z M13,9h-1V8
				h1V9z"/>
			<path fill="#4D4D4D" d="M14,11H1c0,0,0,0.225,0,0.5V13c0,0.275,0,0,0,1h13c0,0,0-0.725,0-1v-1.5C14,11.225,14,11.291,14,11z
				 M13,13h-1v-1h1V13z"/>
		</g>
		<rect fill="none" width="15" height="15"/>
		<polygon fill="#4D4D4D" points="14,6 1,6 4,1 11,1 		"/>
	</g>
</g>
</svg>
