<?xml version="1.0" encoding="utf-8"?>
<!-- Generator: Adobe Illustrator 16.0.0, SVG Export Plug-In . SVG Version: 6.00 Build 0)  -->
<!DOCTYPE svg PUBLIC "-//W3C//DTD SVG 1.1//EN" "http://www.w3.org/Graphics/SVG/1.1/DTD/svg11.dtd">
<svg version="1.1" xmlns="http://www.w3.org/2000/svg" xmlns:xlink="http://www.w3.org/1999/xlink" x="0px" y="0px" width="15px"
	 height="15px" viewBox="0 0 15 15" enable-background="new 0 0 15 15" xml:space="preserve">
<g id="图层_2">
</g>
<g id="图层_3">
</g>
<g id="图层_1">
	<g id="feather">
	</g>
	<g>
		<g>
			<path fill="#4D4D4D" d="M12.291,5.646C12.291,2.527,9.764,0,6.645,0C3.527,0,1,2.527,1,5.646c0,3.117,2.527,5.645,5.645,5.645
				c0.628,0,1.229-0.106,1.793-0.295l2.124,3.979L12,14l-2.012-3.811C11.383,9.16,12.291,7.512,12.291,5.646z M2.94,5.646
				C2.94,3.6,4.6,1.94,6.645,1.94c2.047,0,3.706,1.659,3.706,3.706c0,1.213-0.586,2.287-1.489,2.964L8.838,8.574L8.213,9
				C7.736,9.223,7.207,9.351,6.645,9.351C4.6,9.351,2.94,7.691,2.94,5.646z"/>
		</g>
		<rect fill="none" width="15" height="15"/>
	</g>
</g>
</svg>
