<?xml version="1.0" encoding="utf-8"?>
<!-- Generator: Adobe Illustrator 16.0.0, SVG Export Plug-In . SVG Version: 6.00 Build 0)  -->
<!DOCTYPE svg PUBLIC "-//W3C//DTD SVG 1.1//EN" "http://www.w3.org/Graphics/SVG/1.1/DTD/svg11.dtd">
<svg version="1.1" xmlns="http://www.w3.org/2000/svg" xmlns:xlink="http://www.w3.org/1999/xlink" x="0px" y="0px" width="15px"
	 height="15px" viewBox="0 0 15 15" enable-background="new 0 0 15 15" xml:space="preserve">
<g id="图层_2">
</g>
<g id="图层_3">
</g>
<g id="图层_1">
	<g>
		<g>
			<path fill="#4D4D4D" d="M2.552,6.99c0,2.732,2.216,4.949,4.948,4.949c2.733,0,4.949-2.217,4.949-4.949h-0.634
				c0,2.379-1.936,4.314-4.315,4.314c-2.379,0-4.314-1.936-4.314-4.314H2.552z"/>
			<path fill="#4D4D4D" d="M13.76,6.392C12.351,4.31,10.01,3.067,7.5,3.067S2.65,4.31,1.24,6.391
				c-0.264,0.391-0.162,0.92,0.228,1.183c0.146,0.1,0.312,0.147,0.477,0.147c0.272,0,0.541-0.132,0.706-0.375
				C3.742,5.733,5.557,4.77,7.5,4.77c1.945,0,3.758,0.963,4.85,2.576c0.263,0.39,0.792,0.491,1.182,0.229
				C13.922,7.311,14.023,6.781,13.76,6.392z"/>
			<circle fill="#4D4D4D" cx="7.5" cy="7.584" r="2.406"/>
		</g>
		<rect fill="none" width="15" height="15"/>
	</g>
	<g id="feather">
	</g>
</g>
</svg>
