<?xml version="1.0" encoding="utf-8"?>
<!-- Generator: Adobe Illustrator 19.2.1, SVG Export Plug-In . SVG Version: 6.00 Build 0)  -->
<svg version="1.1" xmlns="http://www.w3.org/2000/svg" xmlns:xlink="http://www.w3.org/1999/xlink" x="0px" y="0px"
	 viewBox="0 0 15 15" enable-background="new 0 0 15 15" xml:space="preserve">
<g id="图层_2">
</g>
<g id="图层_3">
</g>
<g id="图层_1">
	<g id="feather">
	</g>
	<g>
		<polygon fill="none" points="15,15 0,15 0,0 11.999,0 15,0 		"/>
		<polygon fill="#353535" points="2,14 2,4 7,4 7,3 2,3 1,3 1,4 1,14 1,15 2,15 11,15 11,14 		"/>
		<polygon fill="#353535" points="3,0 3,1 3,1 3,2 4,2 4,1 10,1 10,0 		"/>
		<polygon fill="#353535" points="13,4 13,12 12,12 12,13 13,13 14,13 14,4 		"/>
		<rect x="10" y="5.999" fill="#FFFFFF" width="1" height="1"/>
		<polygon fill="#353535" points="7,3 7.999,3.999 11,7 7,7 		"/>
		<polygon fill="#353535" points="10,0.001 10.999,0.999 14,4 10,4 		"/>
		<polygon fill="#353535" points="4,8 4,9 5,9 5,13 6,13 6,9 7,9 7,8 		"/>
		<polygon fill="#353535" points="11,9 11,8 8,8 8,9 8,11 9,11 10,11 10,12 8,12 8,13 10,13 11,13 11,11 11,10 9,10 9,9 		"/>
	</g>
</g>
</svg>
